<svg xmlns="http://www.w3.org/2000/svg" xmlns:xlink="http://www.w3.org/1999/xlink" viewBox="0 0 350 200" width="350" height="200"><path d="M 95.250,106.969 C 95.852,111.051 96.750,109.969 98.250,112.969" stroke-width="5.402" stroke="rgb(0,0,250)" fill="none" stroke-linecap="round"></path><path d="M 98.250,112.969 C 102.114,115.692 100.852,115.051 105.250,114.969" stroke-width="5.242" stroke="rgb(0,0,250)" fill="none" stroke-linecap="round"></path><path d="M 105.250,114.969 C 108.502,112.716 108.614,114.192 111.250,109.969" stroke-width="4.737" stroke="rgb(0,0,250)" fill="none" stroke-linecap="round"></path><path d="M 111.250,109.969 C 114.295,107.835 113.502,107.716 115.250,104.969" stroke-width="4.734" stroke="rgb(0,0,250)" fill="none" stroke-linecap="round"></path><path d="M 115.250,104.969 C 115.250,101.469 116.295,101.835 115.250,97.969" stroke-width="5.043" stroke="rgb(0,0,250)" fill="none" stroke-linecap="round"></path><path d="M 115.250,97.969 C 115.702,94.905 115.250,94.969 115.250,91.969" stroke-width="4.841" stroke="rgb(0,0,250)" fill="none" stroke-linecap="round"></path><path d="M 115.250,91.969 C 115.025,88.012 114.702,88.405 113.250,84.969" stroke-width="4.694" stroke="rgb(0,0,250)" fill="none" stroke-linecap="round"></path><path d="M 113.250,84.969 C 111.120,81.956 111.525,82.012 108.250,79.969" stroke-width="4.651" stroke="rgb(0,0,250)" fill="none" stroke-linecap="round"></path><path d="M 108.250,79.969 C 104.521,76.823 104.620,77.456 100.250,75.969" stroke-width="4.511" stroke="rgb(0,0,250)" fill="none" stroke-linecap="round"></path><path d="M 100.250,75.969 C 94.250,75.969 94.521,74.823 88.250,75.969" stroke-width="4.234" stroke="rgb(0,0,250)" fill="none" stroke-linecap="round"></path><path d="M 88.250,75.969 C 84.250,75.969 84.250,75.969 80.250,75.969" stroke-width="3.939" stroke="rgb(0,0,250)" fill="none" stroke-linecap="round"></path><path d="M 80.250,75.969 C 75.229,75.676 75.250,75.969 70.250,75.969" stroke-width="3.652" stroke="rgb(0,0,250)" fill="none" stroke-linecap="round"></path><path d="M 70.250,75.969 C 66.744,76.431 66.729,76.176 63.250,76.969" stroke-width="3.871" stroke="rgb(0,0,250)" fill="none" stroke-linecap="round"></path><path d="M 63.250,76.969 C 59.841,76.673 60.244,77.431 57.250,77.969" stroke-width="4.447" stroke="rgb(0,0,250)" fill="none" stroke-linecap="round"></path><path d="M 129.250,88.969 C 129.358,85.151 130.250,86.469 131.250,83.969" stroke-width="5.410" stroke="rgb(0,0,250)" fill="none" stroke-linecap="round"></path><path d="M 131.250,83.969 C 134.968,82.701 133.358,82.651 137.250,83.969" stroke-width="5.235" stroke="rgb(0,0,250)" fill="none" stroke-linecap="round"></path><path d="M 137.250,83.969 C 140.426,86.334 139.468,85.201 140.250,88.969" stroke-width="5.192" stroke="rgb(0,0,250)" fill="none" stroke-linecap="round"></path><path d="M 140.250,88.969 C 138.435,94.052 139.926,93.834 136.250,98.969" stroke-width="4.512" stroke="rgb(0,0,250)" fill="none" stroke-linecap="round"></path><path d="M 136.250,98.969 C 133.372,102.761 134.435,103.052 132.250,106.969" stroke-width="4.451" stroke="rgb(0,0,250)" fill="none" stroke-linecap="round"></path><path d="M 132.250,106.969 C 130.837,111.425 131.372,110.261 132.250,113.969" stroke-width="4.770" stroke="rgb(0,0,250)" fill="none" stroke-linecap="round"></path><path d="M 132.250,113.969 C 135.841,116.908 133.337,115.925 137.250,115.969" stroke-width="5.120" stroke="rgb(0,0,250)" fill="none" stroke-linecap="round"></path><path d="M 137.250,115.969 C 138.250,112.969 138.841,114.908 138.250,109.969" stroke-width="4.871" stroke="rgb(0,0,250)" fill="none" stroke-linecap="round"></path><path d="M 138.250,109.969 C 137.750,106.969 138.250,106.969 137.250,103.969" stroke-width="4.971" stroke="rgb(0,0,250)" fill="none" stroke-linecap="round"></path><path d="M 137.250,103.969 C 134.810,100.128 136.750,100.969 136.250,97.969" stroke-width="5.160" stroke="rgb(0,0,250)" fill="none" stroke-linecap="round"></path><path d="M 136.250,97.969 C 140.577,94.639 138.810,94.128 145.250,91.969" stroke-width="4.934" stroke="rgb(0,0,250)" fill="none" stroke-linecap="round"></path><path d="M 145.250,91.969 C 147.715,90.874 147.577,90.639 150.250,89.969" stroke-width="4.403" stroke="rgb(0,0,250)" fill="none" stroke-linecap="round"></path><path d="M 150.250,89.969 C 154.724,88.383 154.715,88.374 159.250,86.969" stroke-width="4.379" stroke="rgb(0,0,250)" fill="none" stroke-linecap="round"></path><path d="M 159.250,86.969 C 163.041,86.573 162.724,85.883 166.250,84.969" stroke-width="4.746" stroke="rgb(0,0,250)" fill="none" stroke-linecap="round"></path><path d="M 166.250,84.969 C 173.250,81.347 170.041,83.073 173.250,79.969" stroke-width="4.783" stroke="rgb(0,0,250)" fill="none" stroke-linecap="round"></path><path d="M 149.250,78.969 C 145.455,76.371 145.250,76.969 141.250,74.969" stroke-width="4.750" stroke="rgb(0,0,250)" fill="none" stroke-linecap="round"></path><path d="M 141.250,74.969 C 136.263,73.897 136.455,73.371 131.250,72.969" stroke-width="3.746" stroke="rgb(0,0,250)" fill="none" stroke-linecap="round"></path><path d="M 131.250,72.969 C 122.669,71.840 122.763,71.397 114.250,69.969" stroke-width="3.022" stroke="rgb(0,0,250)" fill="none" stroke-linecap="round"></path><path d="M 114.250,69.969 C 104.779,67.351 104.669,67.840 95.250,64.969" stroke-width="2.721" stroke="rgb(0,0,250)" fill="none" stroke-linecap="round"></path><path d="M 95.250,64.969 C 86.802,62.679 86.779,62.851 78.250,60.969" stroke-width="2.758" stroke="rgb(0,0,250)" fill="none" stroke-linecap="round"></path><path d="M 78.250,60.969 C 71.306,61.816 74.302,60.179 70.250,59.969" stroke-width="3.379" stroke="rgb(0,0,250)" fill="none" stroke-linecap="round"></path><path d="M 70.250,59.969 C 71.417,55.621 69.306,58.316 74.250,53.969" stroke-width="4.413" stroke="rgb(0,0,250)" fill="none" stroke-linecap="round"></path><path d="M 74.250,53.969 C 78.276,53.631 77.417,52.121 82.250,52.969" stroke-width="3.977" stroke="rgb(0,0,250)" fill="none" stroke-linecap="round"></path><path d="M 82.250,52.969 C 87.203,51.627 87.276,52.131 92.250,50.969" stroke-width="3.643" stroke="rgb(0,0,250)" fill="none" stroke-linecap="round"></path><path d="M 92.250,50.969 C 98.743,50.279 98.703,50.127 105.250,49.969" stroke-width="3.309" stroke="rgb(0,0,250)" fill="none" stroke-linecap="round"></path><path d="M 105.250,49.969 C 109.250,49.969 109.243,49.779 113.250,49.969" stroke-width="3.606" stroke="rgb(0,0,250)" fill="none" stroke-linecap="round"></path><path d="M 113.250,49.969 C 116.762,49.751 116.750,49.969 120.250,49.969" stroke-width="3.863" stroke="rgb(0,0,250)" fill="none" stroke-linecap="round"></path><path d="M 120.250,49.969 C 125.266,49.198 124.762,50.251 129.250,50.969" stroke-width="4.233" stroke="rgb(0,0,250)" fill="none" stroke-linecap="round"></path><path d="M 129.250,50.969 C 134.472,53.876 134.266,53.198 138.250,57.969" stroke-width="4.218" stroke="rgb(0,0,250)" fill="none" stroke-linecap="round"></path><path d="M 138.250,57.969 C 140.993,60.880 140.472,60.376 141.250,63.969" stroke-width="4.863" stroke="rgb(0,0,250)" fill="none" stroke-linecap="round"></path><path d="M 165.250,115.969 C 169.906,116.641 169.250,115.469 173.250,114.969" stroke-width="5.487" stroke="rgb(0,0,250)" fill="none" stroke-linecap="round"></path><path d="M 173.250,114.969 C 177.022,112.709 175.906,113.641 177.250,109.969" stroke-width="4.920" stroke="rgb(0,0,250)" fill="none" stroke-linecap="round"></path><path d="M 177.250,109.969 C 176.942,105.247 177.522,106.709 174.250,102.969" stroke-width="5.005" stroke="rgb(0,0,250)" fill="none" stroke-linecap="round"></path><path d="M 174.250,102.969 C 169.282,100.886 170.442,99.747 164.250,98.969" stroke-width="4.468" stroke="rgb(0,0,250)" fill="none" stroke-linecap="round"></path><path d="M 164.250,98.969 C 158.875,96.449 158.782,96.886 153.250,94.969" stroke-width="3.607" stroke="rgb(0,0,250)" fill="none" stroke-linecap="round"></path><path d="M 153.250,94.969 C 144.804,94.192 149.375,93.949 145.250,93.969" stroke-width="4.217" stroke="rgb(0,0,250)" fill="none" stroke-linecap="round"></path><path d="M 145.250,93.969 C 150.259,94.196 145.804,93.692 155.250,93.969" stroke-width="4.905" stroke="rgb(0,0,250)" fill="none" stroke-linecap="round"></path><path d="M 155.250,93.969 C 161.287,93.747 161.259,93.696 167.250,92.969" stroke-width="3.581" stroke="rgb(0,0,250)" fill="none" stroke-linecap="round"></path><path d="M 167.250,92.969 C 172.783,92.120 172.787,92.247 178.250,90.969" stroke-width="3.447" stroke="rgb(0,0,250)" fill="none" stroke-linecap="round"></path><path d="M 195.250,107.969 C 198.361,107.067 197.750,106.469 200.250,104.969" stroke-width="5.493" stroke="rgb(0,0,250)" fill="none" stroke-linecap="round"></path><path d="M 200.250,104.969 C 202.825,101.674 202.861,102.067 204.250,97.969" stroke-width="4.774" stroke="rgb(0,0,250)" fill="none" stroke-linecap="round"></path><path d="M 204.250,97.969 C 206.126,94.596 205.325,95.174 205.250,91.969" stroke-width="4.947" stroke="rgb(0,0,250)" fill="none" stroke-linecap="round"></path><path d="M 205.250,91.969 C 203.275,88.086 204.126,88.596 200.250,85.969" stroke-width="5.005" stroke="rgb(0,0,250)" fill="none" stroke-linecap="round"></path><path d="M 200.250,85.969 C 197.779,85.179 198.275,84.586 195.250,84.969" stroke-width="5.081" stroke="rgb(0,0,250)" fill="none" stroke-linecap="round"></path><path d="M 195.250,84.969 C 191.750,84.969 191.779,84.679 188.250,84.969" stroke-width="4.977" stroke="rgb(0,0,250)" fill="none" stroke-linecap="round"></path><path d="M 219.250,58.969 C 216.250,58.969 216.250,58.969 213.250,58.969" stroke-width="5.135" stroke="rgb(0,0,250)" fill="none" stroke-linecap="round"></path><path d="M 213.250,58.969 C 209.240,59.179 209.250,58.969 205.250,58.969" stroke-width="4.142" stroke="rgb(0,0,250)" fill="none" stroke-linecap="round"></path><path d="M 205.250,58.969 C 199.714,58.749 199.740,58.679 194.250,57.969" stroke-width="3.601" stroke="rgb(0,0,250)" fill="none" stroke-linecap="round"></path><path d="M 194.250,57.969 C 182.250,55.969 182.214,56.249 170.250,53.969" stroke-width="2.592" stroke="rgb(0,0,250)" fill="none" stroke-linecap="round"></path><path d="M 170.250,53.969 C 164.250,52.969 164.250,52.969 158.250,51.969" stroke-width="2.987" stroke="rgb(0,0,250)" fill="none" stroke-linecap="round"></path><path d="M 158.250,51.969 C 153.610,52.601 155.250,51.469 152.250,50.969" stroke-width="3.712" stroke="rgb(0,0,250)" fill="none" stroke-linecap="round"></path><path d="M 152.250,50.969 C 151.791,47.671 151.110,49.601 153.250,45.969" stroke-width="4.657" stroke="rgb(0,0,250)" fill="none" stroke-linecap="round"></path><path d="M 153.250,45.969 C 155.669,44.706 154.791,44.171 158.250,43.969" stroke-width="4.380" stroke="rgb(0,0,250)" fill="none" stroke-linecap="round"></path><path d="M 158.250,43.969 C 162.717,42.793 162.669,42.706 167.250,41.969" stroke-width="3.840" stroke="rgb(0,0,250)" fill="none" stroke-linecap="round"></path><path d="M 167.250,41.969 C 173.736,40.867 173.717,40.793 180.250,39.969" stroke-width="3.280" stroke="rgb(0,0,250)" fill="none" stroke-linecap="round"></path><path d="M 180.250,39.969 C 188.218,38.587 188.236,38.867 196.250,37.969" stroke-width="2.995" stroke="rgb(0,0,250)" fill="none" stroke-linecap="round"></path><path d="M 196.250,37.969 C 207.747,37.340 207.718,37.087 219.250,36.969" stroke-width="2.544" stroke="rgb(0,0,250)" fill="none" stroke-linecap="round"></path><path d="M 219.250,36.969 C 224.094,35.391 223.247,36.840 227.250,36.969" stroke-width="3.283" stroke="rgb(0,0,250)" fill="none" stroke-linecap="round"></path><path d="M 227.250,36.969 C 230.752,39.734 230.094,38.391 231.250,42.969" stroke-width="4.363" stroke="rgb(0,0,250)" fill="none" stroke-linecap="round"></path><path d="M 216.250,86.969 C 217.055,89.439 216.750,89.469 217.250,91.969" stroke-width="5.451" stroke="rgb(0,0,250)" fill="none" stroke-linecap="round"></path><path d="M 217.250,91.969 C 217.534,95.992 217.555,95.939 217.250,99.969" stroke-width="4.770" stroke="rgb(0,0,250)" fill="none" stroke-linecap="round"></path><path d="M 217.250,99.969 C 215.206,106.491 217.034,102.992 216.250,105.969" stroke-width="4.313" stroke="rgb(0,0,250)" fill="none" stroke-linecap="round"></path><path d="M 216.250,105.969 C 219.523,101.269 218.206,104.991 223.250,96.969" stroke-width="4.916" stroke="rgb(0,0,250)" fill="none" stroke-linecap="round"></path><path d="M 223.250,96.969 C 225.814,93.155 226.023,93.769 229.250,90.969" stroke-width="4.598" stroke="rgb(0,0,250)" fill="none" stroke-linecap="round"></path><path d="M 229.250,90.969 C 232.646,88.766 231.314,89.655 234.250,89.969" stroke-width="5.101" stroke="rgb(0,0,250)" fill="none" stroke-linecap="round"></path><path d="M 234.250,89.969 C 236.793,93.314 236.646,91.766 237.250,96.969" stroke-width="5.066" stroke="rgb(0,0,250)" fill="none" stroke-linecap="round"></path><path d="M 237.250,96.969 C 237.133,101.553 237.793,101.314 236.250,105.969" stroke-width="4.612" stroke="rgb(0,0,250)" fill="none" stroke-linecap="round"></path><path d="M 236.250,105.969 C 235.180,108.947 235.633,109.053 234.250,111.969" stroke-width="4.190" stroke="rgb(0,0,250)" fill="none" stroke-linecap="round"></path><path d="M 253.250,96.969 C 256.320,96.750 256.250,96.469 259.250,95.969" stroke-width="5.264" stroke="rgb(0,0,250)" fill="none" stroke-linecap="round"></path><path d="M 259.250,95.969 C 266.684,95.161 263.820,94.750 268.250,92.969" stroke-width="4.604" stroke="rgb(0,0,250)" fill="none" stroke-linecap="round"></path><path d="M 268.250,92.969 C 266.790,89.477 269.184,91.661 264.250,88.969" stroke-width="5.132" stroke="rgb(0,0,250)" fill="none" stroke-linecap="round"></path><path d="M 264.250,88.969 C 258.655,89.015 259.290,87.977 253.250,89.969" stroke-width="4.453" stroke="rgb(0,0,250)" fill="none" stroke-linecap="round"></path><path d="M 253.250,89.969 C 249.292,89.927 250.155,90.515 247.250,91.969" stroke-width="4.246" stroke="rgb(0,0,250)" fill="none" stroke-linecap="round"></path><path d="M 247.250,91.969 C 244.250,95.571 244.792,94.427 244.250,98.969" stroke-width="4.774" stroke="rgb(0,0,250)" fill="none" stroke-linecap="round"></path><path d="M 244.250,98.969 C 245.250,101.969 244.250,101.571 247.250,103.969" stroke-width="4.778" stroke="rgb(0,0,250)" fill="none" stroke-linecap="round"></path><path d="M 247.250,103.969 C 253.159,106.059 249.250,105.969 252.250,106.969" stroke-width="5.106" stroke="rgb(0,0,250)" fill="none" stroke-linecap="round"></path><path d="M 252.250,106.969 C 246.351,106.626 250.659,108.559 242.250,108.969" stroke-width="5.153" stroke="rgb(0,0,250)" fill="none" stroke-linecap="round"></path><path d="M 242.250,108.969 C 239.064,111.714 239.351,110.626 238.250,114.969" stroke-width="4.783" stroke="rgb(0,0,250)" fill="none" stroke-linecap="round"></path><path d="M 238.250,114.969 C 237.586,118.829 237.564,117.714 239.250,120.969" stroke-width="5.034" stroke="rgb(0,0,250)" fill="none" stroke-linecap="round"></path><path d="M 239.250,120.969 C 242.125,122.832 241.086,123.329 245.250,123.969" stroke-width="4.794" stroke="rgb(0,0,250)" fill="none" stroke-linecap="round"></path><path d="M 245.250,123.969 C 247.736,124.969 247.625,124.832 250.250,124.969" stroke-width="4.849" stroke="rgb(0,0,250)" fill="none" stroke-linecap="round"></path><path d="M 250.250,124.969 C 254.143,125.418 253.736,124.969 257.250,123.969" stroke-width="4.904" stroke="rgb(0,0,250)" fill="none" stroke-linecap="round"></path><path d="M 257.250,123.969 C 261.287,121.017 261.643,121.918 265.250,117.969" stroke-width="4.500" stroke="rgb(0,0,250)" fill="none" stroke-linecap="round"></path><path d="M 265.250,117.969 C 267.874,116.107 267.787,116.017 270.250,113.969" stroke-width="4.646" stroke="rgb(0,0,250)" fill="none" stroke-linecap="round"></path><path d="M 270.250,113.969 C 273.750,111.969 272.874,111.607 275.250,108.969" stroke-width="4.653" stroke="rgb(0,0,250)" fill="none" stroke-linecap="round"></path><path d="M 275.250,108.969 C 275.980,105.485 276.750,105.969 276.250,101.969" stroke-width="4.639" stroke="rgb(0,0,250)" fill="none" stroke-linecap="round"></path><path d="M 276.250,101.969 C 275.980,98.942 276.480,98.985 276.250,95.969" stroke-width="4.291" stroke="rgb(0,0,250)" fill="none" stroke-linecap="round"></path><path d="M 276.250,95.969 C 277.020,93.496 276.480,93.442 277.250,90.969" stroke-width="4.316" stroke="rgb(0,0,250)" fill="none" stroke-linecap="round"></path><path d="M 277.250,70.969 C 277.890,66.804 278.750,67.969 280.250,64.969" stroke-width="5.217" stroke="rgb(0,0,250)" fill="none" stroke-linecap="round"></path><path d="M 280.250,64.969 C 283.258,64.513 282.390,63.304 286.250,63.969" stroke-width="4.881" stroke="rgb(0,0,250)" fill="none" stroke-linecap="round"></path><path d="M 286.250,63.969 C 290.876,61.661 288.758,63.513 291.250,62.969" stroke-width="5.042" stroke="rgb(0,0,250)" fill="none" stroke-linecap="round"></path><path d="M 291.250,62.969 C 291.000,68.219 291.876,65.161 288.250,70.969" stroke-width="4.873" stroke="rgb(0,0,250)" fill="none" stroke-linecap="round"></path><path d="M 288.250,70.969 C 284.215,72.383 285.500,73.719 280.250,73.969" stroke-width="4.023" stroke="rgb(0,0,250)" fill="none" stroke-linecap="round"></path><path d="M 280.250,73.969 C 276.864,75.857 276.715,75.383 273.250,76.969" stroke-width="3.925" stroke="rgb(0,0,250)" fill="none" stroke-linecap="round"></path><path d="M 273.250,76.969 C 270.271,77.717 270.364,77.857 267.250,77.969" stroke-width="4.029" stroke="rgb(0,0,250)" fill="none" stroke-linecap="round"></path><path d="M 267.250,77.969 C 262.732,79.821 264.271,78.217 261.250,77.969" stroke-width="4.514" stroke="rgb(0,0,250)" fill="none" stroke-linecap="round"></path><path d="M 261.250,77.969 C 258.964,72.835 258.732,74.821 259.250,67.969" stroke-width="4.402" stroke="rgb(0,0,250)" fill="none" stroke-linecap="round"></path><path d="M 259.250,67.969 C 259.464,63.314 259.464,64.335 262.250,60.969" stroke-width="4.500" stroke="rgb(0,0,250)" fill="none" stroke-linecap="round"></path><path d="M 262.250,60.969 C 270.006,55.938 268.964,55.314 278.250,51.969" stroke-width="3.871" stroke="rgb(0,0,250)" fill="none" stroke-linecap="round"></path><path d="M 278.250,51.969 C 283.723,49.891 283.506,49.438 289.250,47.969" stroke-width="3.413" stroke="rgb(0,0,250)" fill="none" stroke-linecap="round"></path><path d="M 289.250,47.969 C 295.143,45.496 295.223,45.891 301.250,43.969" stroke-width="3.279" stroke="rgb(0,0,250)" fill="none" stroke-linecap="round"></path><path d="M 301.250,43.969 C 305.327,43.809 305.143,42.996 309.250,42.969" stroke-width="3.637" stroke="rgb(0,0,250)" fill="none" stroke-linecap="round"></path></svg>